<svg width="25" height="19" viewBox="0 0 25 19" fill="none" xmlns="http://www.w3.org/2000/svg">
<path d="M4.8501 13.6624L5.55146 11.6986M5.55146 11.6986L7.70724 5.66235L9.86302 11.6986M5.55146 11.6986H9.86302M10.5644 13.6624L9.86302 11.6986" stroke="black" stroke-width="1.5" stroke-linecap="round" stroke-linejoin="round"/>
<path d="M13.4216 13.6624V10.4624M13.4216 10.4624V5.66235H16.6869C17.5032 5.66235 19.1359 5.66235 19.1359 8.06235C19.1359 10.4624 17.5032 10.4624 16.6869 10.4624M13.4216 10.4624C13.9659 10.4624 15.3808 10.4624 16.6869 10.4624M16.6869 10.4624L19.1359 13.6624" stroke="black" stroke-width="1.5" stroke-linecap="round" stroke-linejoin="round"/>
<path d="M0.850098 16.9766V2.34807C0.850098 1.96936 1.1571 1.66235 1.53581 1.66235H23.0215C23.4003 1.66235 23.7072 1.96936 23.7072 2.34807V16.9766C23.7072 17.3554 23.4003 17.6624 23.0215 17.6624H1.53581C1.1571 17.6624 0.850098 17.3554 0.850098 16.9766Z" stroke="black" stroke-width="1.5"/>
</svg>
