<svg width="14" height="10" viewBox="0 0 14 10" fill="none" xmlns="http://www.w3.org/2000/svg">
<path d="M1.45233 2.84369H7.73805M12.8809 2.84369H11.1666" stroke="white" stroke-linecap="round" stroke-linejoin="round"/>
<path d="M12.8809 7.4151H6.59519M1.45233 7.4151H3.16662" stroke="white" stroke-linecap="round" stroke-linejoin="round"/>
<path d="M9.45232 4.55797C10.3991 4.55797 11.1666 3.79045 11.1666 2.84368C11.1666 1.89691 10.3991 1.12939 9.45232 1.12939C8.50555 1.12939 7.73804 1.89691 7.73804 2.84368C7.73804 3.79045 8.50555 4.55797 9.45232 4.55797Z" stroke="white" stroke-linecap="round" stroke-linejoin="round"/>
<path d="M4.88093 9.12938C3.93416 9.12938 3.16664 8.36187 3.16664 7.41509C3.16664 6.46832 3.93416 5.70081 4.88093 5.70081C5.8277 5.70081 6.59521 6.46832 6.59521 7.41509C6.59521 8.36187 5.8277 9.12938 4.88093 9.12938Z" stroke="white" stroke-linecap="round" stroke-linejoin="round"/>
</svg>
