<svg width="58" height="15" viewBox="0 0 58 15" fill="none" xmlns="http://www.w3.org/2000/svg">
<path d="M4.53045 14V9.41258H11.4588V6.46757H4.53045V3.76798H12.4216V0.84185H0.509382V14H4.53045ZM20.64 14.3587C24.9442 14.3587 26.7376 12.5275 26.7376 9.84678C26.7376 6.48645 23.1319 5.90122 20.64 5.50478C18.5633 5.16497 17.9026 4.86292 17.9026 4.23994C17.9026 3.65471 18.5067 3.33378 19.5828 3.33378C21.0175 3.33378 22.5467 3.95676 23.4717 4.95731L26.1524 2.82407C24.4722 1.21941 22.3579 0.483163 19.696 0.483163C16.4867 0.483163 13.8438 1.88015 13.8438 4.67414C13.8438 7.20382 15.8449 8.31764 19.6772 8.88399C22.2257 9.28043 22.6977 9.56361 22.6977 10.281C22.6977 11.1116 21.7349 11.4137 20.5267 11.4137C19.0542 11.4137 17.3363 10.8285 16.7699 9.28043L12.9187 10.0922C13.7116 12.5653 16.0148 14.3587 20.64 14.3587ZM32.1166 14V9.14829H37.78V14H41.8011V0.84185H37.78V5.59917H32.1166V0.84185H28.0955V14H32.1166ZM53.4255 8.07223L47.441 0.84185H43.7598V14H47.7809V6.71299L53.7841 14H57.4654V0.84185H53.4255V8.07223Z" fill="white"/>
</svg>
