<svg width="19" height="18" viewBox="0 0 19 18" fill="none" xmlns="http://www.w3.org/2000/svg">
<path d="M7.13398 16.556C7.55476 16.556 7.89588 16.2149 7.89588 15.7941C7.89588 15.3733 7.55476 15.0322 7.13398 15.0322C6.71319 15.0322 6.37207 15.3733 6.37207 15.7941C6.37207 16.2149 6.71319 16.556 7.13398 16.556Z" stroke="white" stroke-linecap="round" stroke-linejoin="round"/>
<path d="M15.5148 16.556C15.9356 16.556 16.2767 16.2149 16.2767 15.7941C16.2767 15.3733 15.9356 15.0322 15.5148 15.0322C15.094 15.0322 14.7529 15.3733 14.7529 15.7941C14.7529 16.2149 15.094 16.556 15.5148 16.556Z" stroke="white" stroke-linecap="round" stroke-linejoin="round"/>
<path d="M1.0387 0.556152H4.08632L6.12822 10.7581C6.19789 11.1088 6.38872 11.4239 6.6673 11.6482C6.94588 11.8724 7.29447 11.9916 7.65203 11.9847H15.0577C15.4153 11.9916 15.7639 11.8724 16.0425 11.6482C16.3211 11.4239 16.5119 11.1088 16.5816 10.7581L17.8006 4.36568H4.84822" stroke="white" stroke-linecap="round" stroke-linejoin="round"/>
</svg>
